<mxfile host="bd9e6510-b499-474a-9fdc-e5c61bd5e3c8" modified="2020-09-29T22:13:30.683Z" agent="5.0 (Windows NT 10.0; Win64; x64) AppleWebKit/537.36 (KHTML, like Gecko) Code/1.49.2 Chrome/83.0.4103.122 Electron/9.2.1 Safari/537.36" etag="g1vOyqzRGk47x6FzTkmO" version="13.1.3">
    <diagram id="6hGFLwfOUW9BJ-s0fimq" name="Page-1">
        <mxGraphModel dx="678" dy="618" grid="0" gridSize="10" guides="1" tooltips="1" connect="1" arrows="1" fold="1" page="1" pageScale="1" pageWidth="827" pageHeight="1169" math="0" shadow="0">
            <root>
                <mxCell id="0"/>
                <mxCell id="1" parent="0"/>
                <mxCell id="2" value="0" style="ellipse;whiteSpace=wrap;html=1;gradientColor=#ffffff;" parent="1" vertex="1">
                    <mxGeometry x="100" y="300" width="40" height="40" as="geometry"/>
                </mxCell>
                <mxCell id="10" value="" style="shape=link;html=1;exitX=1;exitY=0.5;exitDx=0;exitDy=0;" parent="1" source="17" edge="1">
                    <mxGeometry width="50" height="50" relative="1" as="geometry">
                        <mxPoint x="510" y="390" as="sourcePoint"/>
                        <mxPoint x="560" y="320" as="targetPoint"/>
                    </mxGeometry>
                </mxCell>
                <mxCell id="11" value="Трактории слоя № 1" style="edgeLabel;html=1;align=center;verticalAlign=middle;resizable=0;points=[];" parent="10" vertex="1" connectable="0">
                    <mxGeometry x="-0.1571" y="-2" relative="1" as="geometry">
                        <mxPoint as="offset"/>
                    </mxGeometry>
                </mxCell>
                <mxCell id="17" value="12 с" style="ellipse;whiteSpace=wrap;html=1;gradientColor=#ffffff;" parent="1" vertex="1">
                    <mxGeometry x="300" y="300" width="40" height="40" as="geometry"/>
                </mxCell>
                <mxCell id="26" value="" style="shape=link;html=1;exitX=1;exitY=0.5;exitDx=0;exitDy=0;shadow=0;comic=0;" parent="1" source="2" target="17" edge="1">
                    <mxGeometry width="50" height="50" relative="1" as="geometry">
                        <mxPoint x="140" y="320" as="sourcePoint"/>
                        <mxPoint x="560" y="320" as="targetPoint"/>
                    </mxGeometry>
                </mxCell>
                <mxCell id="27" value="Трактории слоя № 1" style="edgeLabel;html=1;align=center;verticalAlign=middle;resizable=0;points=[];" parent="26" vertex="1" connectable="0">
                    <mxGeometry x="-0.1571" y="-2" relative="1" as="geometry">
                        <mxPoint as="offset"/>
                    </mxGeometry>
                </mxCell>
                <mxCell id="30" value="" style="shape=link;html=1;exitX=0.5;exitY=0;exitDx=0;exitDy=0;" parent="1" source="17" edge="1">
                    <mxGeometry width="50" height="50" relative="1" as="geometry">
                        <mxPoint x="280" y="290" as="sourcePoint"/>
                        <mxPoint x="320" y="189" as="targetPoint"/>
                    </mxGeometry>
                </mxCell>
                <mxCell id="31" value="" style="shape=link;html=1;" parent="1" edge="1">
                    <mxGeometry width="50" height="50" relative="1" as="geometry">
                        <mxPoint x="474" y="190" as="sourcePoint"/>
                        <mxPoint x="671" y="190" as="targetPoint"/>
                    </mxGeometry>
                </mxCell>
                <mxCell id="32" value="Траектории слоя №2" style="edgeLabel;html=1;align=center;verticalAlign=middle;resizable=0;points=[];" parent="31" vertex="1" connectable="0">
                    <mxGeometry x="0.1334" y="-2" relative="1" as="geometry">
                        <mxPoint x="3.039999999999999" y="-3.23" as="offset"/>
                    </mxGeometry>
                </mxCell>
                <mxCell id="33" value="14 с" style="ellipse;whiteSpace=wrap;html=1;" vertex="1" parent="1">
                    <mxGeometry x="441" y="159" width="40" height="40" as="geometry"/>
                </mxCell>
                <mxCell id="34" value="" style="shape=link;html=1;" edge="1" parent="1">
                    <mxGeometry width="50" height="50" relative="1" as="geometry">
                        <mxPoint x="318" y="191" as="sourcePoint"/>
                        <mxPoint x="455" y="191" as="targetPoint"/>
                    </mxGeometry>
                </mxCell>
                <mxCell id="35" value="Траектории слоя №2" style="edgeLabel;html=1;align=center;verticalAlign=middle;resizable=0;points=[];" vertex="1" connectable="0" parent="34">
                    <mxGeometry x="0.1334" y="-2" relative="1" as="geometry">
                        <mxPoint x="-11.93" y="-3" as="offset"/>
                    </mxGeometry>
                </mxCell>
                <mxCell id="36" value="" style="shape=link;html=1;exitX=0.5;exitY=0;exitDx=0;exitDy=0;" edge="1" parent="1" source="33">
                    <mxGeometry width="50" height="50" relative="1" as="geometry">
                        <mxPoint x="538" y="158" as="sourcePoint"/>
                        <mxPoint x="461" y="94" as="targetPoint"/>
                    </mxGeometry>
                </mxCell>
                <mxCell id="37" value="" style="shape=link;html=1;" edge="1" parent="1">
                    <mxGeometry width="50" height="50" relative="1" as="geometry">
                        <mxPoint x="458" y="96" as="sourcePoint"/>
                        <mxPoint x="657" y="96" as="targetPoint"/>
                    </mxGeometry>
                </mxCell>
                <mxCell id="38" value="Траектории слоя №4" style="edgeLabel;html=1;align=center;verticalAlign=middle;resizable=0;points=[];" vertex="1" connectable="0" parent="37">
                    <mxGeometry x="0.3511" y="2" relative="1" as="geometry">
                        <mxPoint x="-33.48" y="1" as="offset"/>
                    </mxGeometry>
                </mxCell>
                <mxCell id="39" value="14 с" style="ellipse;whiteSpace=wrap;html=1;gradientColor=#ffffff;" vertex="1" parent="1">
                    <mxGeometry x="441" y="190" width="40" height="40" as="geometry"/>
                </mxCell>
                <mxCell id="40" value="" style="shape=link;html=1;entryX=0.5;entryY=1;entryDx=0;entryDy=0;" edge="1" parent="1" target="39">
                    <mxGeometry width="50" height="50" relative="1" as="geometry">
                        <mxPoint x="461" y="269" as="sourcePoint"/>
                        <mxPoint x="474" y="237" as="targetPoint"/>
                    </mxGeometry>
                </mxCell>
                <mxCell id="41" value="" style="shape=link;html=1;fontStyle=1" edge="1" parent="1">
                    <mxGeometry width="50" height="50" relative="1" as="geometry">
                        <mxPoint x="458" y="267" as="sourcePoint"/>
                        <mxPoint x="677" y="267" as="targetPoint"/>
                    </mxGeometry>
                </mxCell>
                <mxCell id="42" value="Траектории слоя №3" style="edgeLabel;html=1;align=center;verticalAlign=middle;resizable=0;points=[];" vertex="1" connectable="0" parent="41">
                    <mxGeometry x="0.1172" y="-3" relative="1" as="geometry">
                        <mxPoint x="-3.07" y="-2" as="offset"/>
                    </mxGeometry>
                </mxCell>
                <mxCell id="43" value="" style="endArrow=classic;html=1;shadow=0;" edge="1" parent="1">
                    <mxGeometry width="50" height="50" relative="1" as="geometry">
                        <mxPoint x="367" y="110" as="sourcePoint"/>
                        <mxPoint x="367" y="175" as="targetPoint"/>
                    </mxGeometry>
                </mxCell>
                <mxCell id="44" value="12 с &amp;lt;= t &amp;lt; 14 с" style="edgeLabel;html=1;align=center;verticalAlign=middle;resizable=0;points=[];" vertex="1" connectable="0" parent="43">
                    <mxGeometry x="-0.3747" y="1" relative="1" as="geometry">
                        <mxPoint as="offset"/>
                    </mxGeometry>
                </mxCell>
                <mxCell id="45" value="" style="endArrow=classic;html=1;shadow=0;" edge="1" parent="1">
                    <mxGeometry width="50" height="50" relative="1" as="geometry">
                        <mxPoint x="558" y="19" as="sourcePoint"/>
                        <mxPoint x="558" y="84" as="targetPoint"/>
                    </mxGeometry>
                </mxCell>
                <mxCell id="46" value="t &amp;gt;= 15 с" style="edgeLabel;html=1;align=center;verticalAlign=middle;resizable=0;points=[];" vertex="1" connectable="0" parent="45">
                    <mxGeometry x="-0.3747" y="1" relative="1" as="geometry">
                        <mxPoint as="offset"/>
                    </mxGeometry>
                </mxCell>
                <mxCell id="49" value="" style="endArrow=classic;html=1;shadow=0;" edge="1" parent="1">
                    <mxGeometry width="50" height="50" relative="1" as="geometry">
                        <mxPoint x="219" y="226" as="sourcePoint"/>
                        <mxPoint x="219" y="286" as="targetPoint"/>
                    </mxGeometry>
                </mxCell>
                <mxCell id="50" value="0 с &amp;lt;= t &amp;lt; 12 с" style="edgeLabel;html=1;align=center;verticalAlign=middle;resizable=0;points=[];" vertex="1" connectable="0" parent="49">
                    <mxGeometry x="-0.626" relative="1" as="geometry">
                        <mxPoint x="3" y="9.97" as="offset"/>
                    </mxGeometry>
                </mxCell>
                <mxCell id="51" value="" style="rounded=0;whiteSpace=wrap;html=1;gradientColor=none;dashed=1;glass=0;fillColor=none;" vertex="1" parent="1">
                    <mxGeometry x="85" y="293" width="266" height="60" as="geometry"/>
                </mxCell>
                <mxCell id="52" value="" style="rounded=0;whiteSpace=wrap;html=1;gradientColor=none;dashed=1;glass=0;fillColor=none;rotation=-90;" vertex="1" parent="1">
                    <mxGeometry x="235" y="238" width="170" height="60" as="geometry"/>
                </mxCell>
                <mxCell id="55" value="" style="rounded=0;whiteSpace=wrap;html=1;gradientColor=none;dashed=1;glass=0;fillColor=none;" vertex="1" parent="1">
                    <mxGeometry x="290" y="183" width="194" height="50" as="geometry"/>
                </mxCell>
                <mxCell id="56" value="" style="rounded=0;whiteSpace=wrap;html=1;gradientColor=none;dashed=1;glass=0;fillColor=none;rotation=-90;" vertex="1" parent="1">
                    <mxGeometry x="405.25" y="208.25" width="104.5" height="53" as="geometry"/>
                </mxCell>
                <mxCell id="57" value="" style="rounded=0;whiteSpace=wrap;html=1;gradientColor=none;dashed=1;glass=0;fillColor=none;" vertex="1" parent="1">
                    <mxGeometry x="431" y="233" width="261" height="54" as="geometry"/>
                </mxCell>
                <mxCell id="60" value="Активный слой&amp;nbsp;&lt;span lang=&quot;RU&quot; style=&quot;font-size: 14.0pt ; line-height: 107% ; font-family: &amp;#34;times new roman&amp;#34; , serif&quot;&gt;—&lt;/span&gt;&amp;nbsp;слой №3" style="text;html=1;strokeColor=none;fillColor=none;align=center;verticalAlign=middle;whiteSpace=wrap;rounded=0;glass=0;dashed=1;" vertex="1" parent="1">
                    <mxGeometry x="85" y="47" width="286" height="39" as="geometry"/>
                </mxCell>
            </root>
        </mxGraphModel>
    </diagram>
</mxfile>